#!OML:ASF E:\Steps\Project 1\Capture day 1\Session 2\Subject.ASF
:FULLY-SPECIFIED
:DEGREES
234
root 8.60266 16.1884 25.07 -154.727 7.11207 176.569
lowerback -24.3636 -0.521485 -8.71077
upperback 0.37361 2.66636 -2.96602
thorax 13.9768 0.896602 2.56897
lowerneck 2.41402 -4.87099 -2.07284
upperneck 8.4712 -6.35458 2.67869
head 2.43263 -3.02093 1.11362
rclavicle -1.45113e-014 4.77083e-015
rhumerus -33.0409 -10.593 -82.695
rradius 37.5389
rwrist -5.23496
rhand -6.54937 -50.32
rfingers 7.12502
rthumb 19.3042 -79.3818
lclavicle -1.45113e-014 4.77083e-015
lhumerus -30.4199 9.70319 76.8259
lradius 22.3443
lwrist -3.01384
lhand -20.7203 -12.0467
lfingers 7.12502
lthumb 5.64441 17.8581
rfemur -34.3842 -1.08362 17.928
rtibia 62.1309
rfoot -5.78351 -5.49644
rtoes -38.1947
lfemur -32.7147 -8.31839 -23.5297
ltibia 17.1195
lfoot -8.96043 0.789616
ltoes -29.8955
235
root 8.59636 16.1903 24.9844 -155.049 7.05604 176.619
lowerback -24.0477 -0.61602 -8.73728
upperback 0.449305 2.48497 -2.86928
thorax 13.899 0.802837 2.62312
lowerneck 2.5356 -4.81501 -2.2315
upperneck 8.46725 -6.29519 2.97924
head 2.42714 -2.98755 1.24103
rclavicle -5.76476e-015 4.21423e-014
rhumerus -33.2393 -10.8821 -82.4115
rradius 37.5194
rwrist -5.46735
rhand -6.30817 -50.8093
rfingers 7.12502
rthumb 19.5361 -79.8478
lclavicle -5.76476e-015 4.21423e-014
lhumerus -30.0912 9.63706 76.8868
lradius 22.474
lwrist -3.06064
lhand -20.8426 -12.0791
lfingers 7.12502
lthumb 5.52628 17.8289
rfemur -35.3424 -1.31735 18.1179
rtibia 63.4994
rfoot -6.67699 -6.99093
rtoes -38.371
lfemur -32.0071 -8.35544 -23.6129
ltibia 17.1444
lfoot -9.37366 0.739719
ltoes -29.6906
236
root 8.58703 16.1943 24.9045 -155.292 7.02288 176.694
lowerback -23.7998 -0.665108 -8.62862
upperback 0.528432 2.3413 -2.81312
thorax 13.8665 0.736078 2.56969
lowerneck 2.61575 -4.80408 -2.44692
upperneck 8.6531 -6.29799 3.42574
head 2.50294 -2.97678 1.42294
rclavicle 1.78906e-014 3.97569e-014
rhumerus -33.3641 -11.324 -82.1938
rradius 37.5298
rwrist -5.47599
rhand -6.23727 -51.1673
rfingers 7.12502
rthumb 19.6043 -80.1988
lclavicle 1.78906e-014 3.97569e-014
lhumerus -29.5774 9.69642 76.9196
lradius 22.4983
lwrist -3.21753
lhand -20.9701 -12.1647
lfingers 7.12502
lthumb 5.40318 17.7464
rfemur -36.4235 -1.49656 18.2732
rtibia 64.8029
rfoot -7.6845 -8.29565
rtoes -38.7159
lfemur -31.406 -8.44719 -23.6615
ltibia 17.1639
lfoot -9.66813 0.843325
ltoes -29.1016
237
root 8.57217 16.1808 24.8408 -154.568 7.71261 177.137
lowerback -24.5119 -0.477007 -8.1709
upperback 0.387537 2.53095 -2.76819
thorax 14.0964 0.847451 2.44413
lowerneck 2.25338 -4.82982 -2.54059
upperneck 9.17198 -6.34793 3.86205
head 2.76749 -2.9753 1.57015
rclavicle 1.33186e-014 1.19271e-014
rhumerus -33.3942 -11.6599 -81.9947
rradius 37.5731
rwrist -5.47548
rhand -6.25697 -51.2219
rfingers 7.12502
rthumb 19.5853 -80.2554
lclavicle 1.33186e-014 1.19271e-014
lhumerus -28.9596 9.56787 77.0407
lradius 22.5741
lwrist -2.97091
lhand -21.1272 -12.3483
lfingers 7.12502
lthumb 5.25149 17.5666
rfemur -38.9987 -0.868381 18.5142
rtibia 66.4136
rfoot -8.7259 -9.26866
rtoes -37.4808
lfemur -31.9377 -8.11693 -23.3443
ltibia 17.2393
lfoot -9.86465 1.32509
ltoes -28.9323
238
root 8.56266 16.198 24.7396 -155.535 6.99126 176.825
lowerback -23.788 -0.730671 -8.30122
upperback 0.788818 2.1384 -2.73651
thorax 14.1949 0.631432 2.39716
lowerneck 2.19711 -4.79317 -2.47794
upperneck 9.13559 -6.29786 3.78777
head 2.75747 -2.95256 1.53493
rclavicle 2.18663e-015 8.82604e-014
rhumerus -33.3312 -12.2179 -81.7252
rradius 37.3023
rwrist -5.41417
rhand -6.25118 -50.8243
rfingers 7.12502
rthumb 19.5909 -79.8573
lclavicle 2.18663e-015 8.82604e-014
lhumerus -28.348 9.43822 77.1025
lradius 22.6526
lwrist -2.76331
lhand -21.0848 -12.3452
lfingers 7.12502
lthumb 5.29249 17.5688
rfemur -38.7607 -1.68924 18.4079
rtibia 66.5475
rfoot -10.6928 -9.4291
rtoes -37.7347
lfemur -30.3972 -8.79619 -23.739
ltibia 17.0521
lfoot -10.2064 1.08697
ltoes -28.6105
239
root 8.55532 16.204 24.6655 -155.573 6.83333 176.974
lowerback -23.5446 -0.790958 -8.10936
upperback 0.753876 1.95671 -2.67129
thorax 14.0327 0.564769 2.29637
lowerneck 2.29296 -4.72028 -2.52151
upperneck 9.21127 -6.20355 3.95256
head 2.77124 -2.89805 1.60054
rclavicle 1.23246e-014 -9.46215e-014
rhumerus -33.5397 -12.8205 -81.3926
rradius 37.0295
rwrist -5.29827
rhand -6.14053 -49.9998
rfingers 7.12502
rthumb 19.6973 -79.0219
lclavicle 1.23246e-014 -9.46215e-014
lhumerus -27.9959 9.27702 77.114
lradius 22.854
lwrist -2.69042
lhand -21.1249 -11.9095
lfingers 7.12502
lthumb 5.25376 18.0054
rfemur -39.9798 -1.72033 18.605
rtibia 66.9777
rfoot -11.1719 -10.6426
rtoes -38.7211
lfemur -30.1048 -8.88743 -23.6438
ltibia 17.1752
lfoot -10.6643 1.0479
ltoes -28.6142
240
root 8.54848 16.2126 24.5797 -155.885 6.64467 177.111
lowerback -23.9839 -0.869795 -7.89746
upperback 1.29664 1.82232 -2.567
thorax 14.9484 0.448819 2.24483
lowerneck 2.24477 -4.71517 -2.55242
upperneck 8.81804 -6.23114 4.20092
head 2.66048 -2.92162 1.68667
rclavicle -2.38542e-015 3.33958e-014
rhumerus -33.0156 -13.2941 -81.2543
rradius 36.813
rwrist -5.11422
rhand -6.2067 -49.7525
rfingers 7.12502
rthumb 19.6336 -78.7811
lclavicle -2.38542e-015 3.33958e-014
lhumerus -26.8277 9.4066 77.3201
lradius 22.9398
lwrist -2.68432
lhand -21.3902 -11.3835
lfingers 7.12502
lthumb 4.99761 18.5375
rfemur -40.7406 -1.70241 18.7672
rtibia 67.1704
rfoot -11.5395 -11.535
rtoes -38.321
lfemur -29.2976 -9.03385 -23.6046
ltibia 17.0023
lfoot -10.9046 1.07686
ltoes -29.2344
